<svg width="1614" height="150" viewBox="0 0 1614 150" fill="none" xmlns="http://www.w3.org/2000/svg">
<path d="M75.42 -1.00136e-05C96.84 -1.00136e-05 113.78 5.38999 126.24 16.17C138.7 26.81 144.93 42.07 144.93 61.95H100.62C100.62 53.55 98.38 46.9 93.9 42C89.56 37.1 83.33 34.65 75.21 34.65C65.83 34.65 58.9 37.59 54.42 43.47C50.08 49.35 47.91 57.54 47.91 68.04V81.48C47.91 91.84 50.08 100.03 54.42 106.05C58.9 111.93 65.69 114.87 74.79 114.87C83.75 114.87 90.54 112.56 95.16 107.94C99.78 103.32 102.09 96.81 102.09 88.41H144.93C144.93 108.15 138.84 123.27 126.66 133.77C114.62 144.27 97.54 149.52 75.42 149.52C50.78 149.52 32.09 143.22 19.35 130.62C6.75 118.02 0.45 99.4 0.45 74.76C0.45 50.12 6.75 31.5 19.35 18.9C32.09 6.29999 50.78 -1.00136e-05 75.42 -1.00136e-05ZM295.117 46.83C295.117 55.65 292.737 63.63 287.977 70.77C283.217 77.91 276.287 83.16 267.187 86.52L299.317 147H247.237L221.617 94.29H204.397V147H157.987V2.52H246.397C256.757 2.52 265.577 4.54999 272.857 8.60999C280.277 12.53 285.807 17.92 289.447 24.78C293.227 31.5 295.117 38.85 295.117 46.83ZM247.867 48.72C247.867 44.94 246.607 41.79 244.087 39.27C241.567 36.75 238.487 35.49 234.847 35.49H204.397V62.16H234.847C238.487 62.16 241.567 60.9 244.087 58.38C246.607 55.72 247.867 52.5 247.867 48.72ZM390.081 147H343.671V90.93L286.341 2.52H339.681L367.401 50.61H368.241L395.961 2.52H446.571L390.081 90.93V147ZM532.918 2.52C541.878 2.52 549.858 4.61999 556.858 8.81999C563.858 12.88 569.318 18.55 573.238 25.83C577.158 32.97 579.118 41.02 579.118 49.98V52.71C579.118 61.67 577.158 69.79 573.238 77.07C569.318 84.35 563.858 90.09 556.858 94.29C549.858 98.35 541.878 100.38 532.918 100.38H498.268V147H451.858V2.52H532.918ZM498.268 66.57H517.378C522.278 66.57 525.918 65.31 528.298 62.79C530.818 60.27 532.078 56.84 532.078 52.5V50.82C532.078 46.34 530.818 42.91 528.298 40.53C525.918 38.01 522.278 36.75 517.378 36.75H498.268V66.57ZM674.571 39.48V147H628.161V39.48H580.701V2.52H721.821V39.48H674.571ZM795.606 -1.00136e-05C820.526 -1.00136e-05 839.776 6.36999 853.356 19.11C866.936 31.85 873.726 50.4 873.726 74.76C873.726 99.12 866.936 117.67 853.356 130.41C839.776 143.15 820.526 149.52 795.606 149.52C770.686 149.52 751.436 143.22 737.856 130.62C724.416 117.88 717.696 99.26 717.696 74.76C717.696 50.26 724.416 31.71 737.856 19.11C751.436 6.36999 770.686 -1.00136e-05 795.606 -1.00136e-05ZM795.606 34.65C785.666 34.65 778.106 37.66 772.926 43.68C767.746 49.7 765.156 57.82 765.156 68.04V81.48C765.156 91.7 767.746 99.82 772.926 105.84C778.106 111.86 785.666 114.87 795.606 114.87C805.546 114.87 813.106 111.86 818.286 105.84C823.606 99.82 826.266 91.7 826.266 81.48V68.04C826.266 57.82 823.606 49.7 818.286 43.68C813.106 37.66 805.546 34.65 795.606 34.65ZM947.408 -1.00136e-05C965.888 -1.00136e-05 981.078 3.77999 992.978 11.34C1004.88 18.76 1010.97 29.82 1011.25 44.52V47.04H967.778V46.2C967.778 42 966.238 38.5 963.158 35.7C960.078 32.9 955.388 31.5 949.088 31.5C942.928 31.5 938.168 32.41 934.808 34.23C931.588 36.05 929.978 38.29 929.978 40.95C929.978 44.73 932.218 47.53 936.698 49.35C941.178 51.17 948.388 53.06 958.328 55.02C969.948 57.4 979.468 59.92 986.888 62.58C994.448 65.1 1001.03 69.3 1006.63 75.18C1012.23 81.06 1015.1 89.04 1015.24 99.12C1015.24 116.2 1009.43 128.87 997.808 137.13C986.328 145.39 970.928 149.52 951.608 149.52C929.068 149.52 911.498 145.74 898.898 138.18C886.438 130.62 880.208 117.25 880.208 98.07H924.098C924.098 105.35 925.988 110.25 929.768 112.77C933.548 115.15 939.428 116.34 947.408 116.34C953.288 116.34 958.118 115.71 961.898 114.45C965.818 113.19 967.778 110.6 967.778 106.68C967.778 103.18 965.608 100.59 961.268 98.91C957.068 97.09 950.138 95.2 940.478 93.24C928.718 90.72 918.988 88.13 911.288 85.47C903.588 82.67 896.868 78.12 891.128 71.82C885.388 65.52 882.518 56.98 882.518 46.2C882.518 30.38 888.608 18.76 900.788 11.34C913.108 3.77999 928.648 -1.00136e-05 947.408 -1.00136e-05ZM1123.08 147L1116.99 126.63H1066.38L1060.29 147H1012.83L1065.54 2.52H1119.51L1172.22 147H1123.08ZM1076.04 94.29H1107.33L1092.21 42.84H1091.37L1076.04 94.29ZM1314.39 88.83C1314.39 108.57 1308.16 123.62 1295.7 133.98C1283.24 144.34 1265.53 149.52 1242.57 149.52C1219.61 149.52 1201.83 144.34 1189.23 133.98C1176.77 123.62 1170.54 108.57 1170.54 88.83V2.52H1216.95V88.2C1216.95 96.32 1219.12 102.83 1223.46 107.73C1227.8 112.49 1234.1 114.87 1242.36 114.87C1250.62 114.87 1256.92 112.42 1261.26 107.52C1265.74 102.62 1267.98 96.18 1267.98 88.2V2.52H1314.39V88.83ZM1470.6 46.83C1470.6 55.65 1468.22 63.63 1463.46 70.77C1458.7 77.91 1451.77 83.16 1442.67 86.52L1474.8 147H1422.72L1397.1 94.29H1379.88V147H1333.47V2.52H1421.88C1432.24 2.52 1441.06 4.54999 1448.34 8.60999C1455.76 12.53 1461.29 17.92 1464.93 24.78C1468.71 31.5 1470.6 38.85 1470.6 46.83ZM1423.35 48.72C1423.35 44.94 1422.09 41.79 1419.57 39.27C1417.05 36.75 1413.97 35.49 1410.33 35.49H1379.88V62.16H1410.33C1413.97 62.16 1417.05 60.9 1419.57 58.38C1422.09 55.72 1423.35 52.5 1423.35 48.72ZM1545.61 -1.00136e-05C1564.09 -1.00136e-05 1579.28 3.77999 1591.18 11.34C1603.08 18.76 1609.17 29.82 1609.45 44.52V47.04H1565.98V46.2C1565.98 42 1564.44 38.5 1561.36 35.7C1558.28 32.9 1553.59 31.5 1547.29 31.5C1541.13 31.5 1536.37 32.41 1533.01 34.23C1529.79 36.05 1528.18 38.29 1528.18 40.95C1528.18 44.73 1530.42 47.53 1534.9 49.35C1539.38 51.17 1546.59 53.06 1556.53 55.02C1568.15 57.4 1577.67 59.92 1585.09 62.58C1592.65 65.1 1599.23 69.3 1604.83 75.18C1610.43 81.06 1613.3 89.04 1613.44 99.12C1613.44 116.2 1607.63 128.87 1596.01 137.13C1584.53 145.39 1569.13 149.52 1549.81 149.52C1527.27 149.52 1509.7 145.74 1497.1 138.18C1484.64 130.62 1478.41 117.25 1478.41 98.07H1522.3C1522.3 105.35 1524.19 110.25 1527.97 112.77C1531.75 115.15 1537.63 116.34 1545.61 116.34C1551.49 116.34 1556.32 115.71 1560.1 114.45C1564.02 113.19 1565.98 110.6 1565.98 106.68C1565.98 103.18 1563.81 100.59 1559.47 98.91C1555.27 97.09 1548.34 95.2 1538.68 93.24C1526.92 90.72 1517.19 88.13 1509.49 85.47C1501.79 82.67 1495.07 78.12 1489.33 71.82C1483.59 65.52 1480.72 56.98 1480.72 46.2C1480.72 30.38 1486.81 18.76 1498.99 11.34C1511.31 3.77999 1526.85 -1.00136e-05 1545.61 -1.00136e-05Z" fill="white" style="mix-blend-mode:exclusion"/>
</svg>
