<svg width="372" height="33" viewBox="0 0 372 33" fill="none" xmlns="http://www.w3.org/2000/svg">
<path d="M16.5973 0.499998C21.1873 0.499998 24.8173 1.655 27.4873 3.965C30.1573 6.245 31.4923 9.515 31.4923 13.775H21.9973C21.9973 11.975 21.5173 10.55 20.5573 9.5C19.6273 8.45 18.2923 7.925 16.5523 7.925C14.5423 7.925 13.0573 8.555 12.0973 9.815C11.1673 11.075 10.7023 12.83 10.7023 15.08V17.96C10.7023 20.18 11.1673 21.935 12.0973 23.225C13.0573 24.485 14.5123 25.115 16.4623 25.115C18.3823 25.115 19.8373 24.62 20.8273 23.63C21.8173 22.64 22.3123 21.245 22.3123 19.445H31.4923C31.4923 23.675 30.1873 26.915 27.5773 29.165C24.9973 31.415 21.3373 32.54 16.5973 32.54C11.3173 32.54 7.31232 31.19 4.58232 28.49C1.88232 25.79 0.532324 21.8 0.532324 16.52C0.532324 11.24 1.88232 7.25 4.58232 4.55C7.31232 1.85 11.3173 0.499998 16.5973 0.499998ZM66.2467 10.535C66.2467 12.425 65.7367 14.135 64.7167 15.665C63.6967 17.195 62.2117 18.32 60.2617 19.04L67.1467 32H55.9867L50.4967 20.705H46.8067V32H36.8617V1.04H55.8067C58.0267 1.04 59.9167 1.475 61.4767 2.345C63.0667 3.185 64.2517 4.34 65.0317 5.81C65.8417 7.25 66.2467 8.825 66.2467 10.535ZM56.1217 10.94C56.1217 10.13 55.8517 9.455 55.3117 8.915C54.7717 8.375 54.1117 8.105 53.3317 8.105H46.8067V13.82H53.3317C54.1117 13.82 54.7717 13.55 55.3117 13.01C55.8517 12.44 56.1217 11.75 56.1217 10.94ZM89.1676 32H79.2226V19.985L66.9376 1.04H78.3676L84.3076 11.345H84.4876L90.4276 1.04H101.273L89.1676 19.985V32ZM122.347 1.04C124.267 1.04 125.977 1.49 127.477 2.39C128.977 3.26 130.147 4.475 130.987 6.035C131.827 7.565 132.247 9.29 132.247 11.21V11.795C132.247 13.715 131.827 15.455 130.987 17.015C130.147 18.575 128.977 19.805 127.477 20.705C125.977 21.575 124.267 22.01 122.347 22.01H114.922V32H104.977V1.04H122.347ZM114.922 14.765H119.017C120.067 14.765 120.847 14.495 121.357 13.955C121.897 13.415 122.167 12.68 122.167 11.75V11.39C122.167 10.43 121.897 9.695 121.357 9.185C120.847 8.645 120.067 8.375 119.017 8.375H114.922V14.765ZM155.273 8.96V32H145.328V8.96H135.158V1.04H165.398V8.96H155.273ZM183.78 0.499998C189.12 0.499998 193.245 1.865 196.155 4.595C199.065 7.325 200.52 11.3 200.52 16.52C200.52 21.74 199.065 25.715 196.155 28.445C193.245 31.175 189.12 32.54 183.78 32.54C178.44 32.54 174.315 31.19 171.405 28.49C168.525 25.76 167.085 21.77 167.085 16.52C167.085 11.27 168.525 7.295 171.405 4.595C174.315 1.865 178.44 0.499998 183.78 0.499998ZM183.78 7.925C181.65 7.925 180.03 8.57 178.92 9.86C177.81 11.15 177.255 12.89 177.255 15.08V17.96C177.255 20.15 177.81 21.89 178.92 23.18C180.03 24.47 181.65 25.115 183.78 25.115C185.91 25.115 187.53 24.47 188.64 23.18C189.78 21.89 190.35 20.15 190.35 17.96V15.08C190.35 12.89 189.78 11.15 188.64 9.86C187.53 8.57 185.91 7.925 183.78 7.925ZM218.88 0.499998C222.84 0.499998 226.095 1.31 228.645 2.93C231.195 4.52 232.5 6.89 232.56 10.04V10.58H223.245V10.4C223.245 9.5 222.915 8.75 222.255 8.15C221.595 7.55 220.59 7.25 219.24 7.25C217.92 7.25 216.9 7.445 216.18 7.835C215.49 8.225 215.145 8.705 215.145 9.275C215.145 10.085 215.625 10.685 216.585 11.075C217.545 11.465 219.09 11.87 221.22 12.29C223.71 12.8 225.75 13.34 227.34 13.91C228.96 14.45 230.37 15.35 231.57 16.61C232.77 17.87 233.385 19.58 233.415 21.74C233.415 25.4 232.17 28.115 229.68 29.885C227.22 31.655 223.92 32.54 219.78 32.54C214.95 32.54 211.185 31.73 208.485 30.11C205.815 28.49 204.48 25.625 204.48 21.515H213.885C213.885 23.075 214.29 24.125 215.1 24.665C215.91 25.175 217.17 25.43 218.88 25.43C220.14 25.43 221.175 25.295 221.985 25.025C222.825 24.755 223.245 24.2 223.245 23.36C223.245 22.61 222.78 22.055 221.85 21.695C220.95 21.305 219.465 20.9 217.395 20.48C214.875 19.94 212.79 19.385 211.14 18.815C209.49 18.215 208.05 17.24 206.82 15.89C205.59 14.54 204.975 12.71 204.975 10.4C204.975 7.01 206.28 4.52 208.89 2.93C211.53 1.31 214.86 0.499998 218.88 0.499998ZM259.096 32L257.791 27.635H246.946L245.641 32H235.471L246.766 1.04H258.331L269.626 32H259.096ZM249.016 20.705H255.721L252.481 9.68H252.301L249.016 20.705ZM302.662 19.535C302.662 23.765 301.327 26.99 298.657 29.21C295.987 31.43 292.192 32.54 287.272 32.54C282.352 32.54 278.542 31.43 275.842 29.21C273.172 26.99 271.837 23.765 271.837 19.535V1.04H281.782V19.4C281.782 21.14 282.247 22.535 283.177 23.585C284.107 24.605 285.457 25.115 287.227 25.115C288.997 25.115 290.347 24.59 291.277 23.54C292.237 22.49 292.717 21.11 292.717 19.4V1.04H302.662V19.535ZM338.708 10.535C338.708 12.425 338.198 14.135 337.178 15.665C336.158 17.195 334.673 18.32 332.723 19.04L339.608 32H328.448L322.958 20.705H319.268V32H309.323V1.04H328.268C330.488 1.04 332.378 1.475 333.938 2.345C335.528 3.185 336.713 4.34 337.493 5.81C338.303 7.25 338.708 8.825 338.708 10.535ZM328.583 10.94C328.583 10.13 328.313 9.455 327.773 8.915C327.233 8.375 326.573 8.105 325.793 8.105H319.268V13.82H325.793C326.573 13.82 327.233 13.55 327.773 13.01C328.313 12.44 328.583 11.75 328.583 10.94ZM357.352 0.499998C361.312 0.499998 364.567 1.31 367.117 2.93C369.667 4.52 370.972 6.89 371.032 10.04V10.58H361.717V10.4C361.717 9.5 361.387 8.75 360.727 8.15C360.067 7.55 359.062 7.25 357.712 7.25C356.392 7.25 355.372 7.445 354.652 7.835C353.962 8.225 353.617 8.705 353.617 9.275C353.617 10.085 354.097 10.685 355.057 11.075C356.017 11.465 357.562 11.87 359.692 12.29C362.182 12.8 364.222 13.34 365.812 13.91C367.432 14.45 368.842 15.35 370.042 16.61C371.242 17.87 371.857 19.58 371.887 21.74C371.887 25.4 370.642 28.115 368.152 29.885C365.692 31.655 362.392 32.54 358.252 32.54C353.422 32.54 349.657 31.73 346.957 30.11C344.287 28.49 342.952 25.625 342.952 21.515H352.357C352.357 23.075 352.762 24.125 353.572 24.665C354.382 25.175 355.642 25.43 357.352 25.43C358.612 25.43 359.647 25.295 360.457 25.025C361.297 24.755 361.717 24.2 361.717 23.36C361.717 22.61 361.252 22.055 360.322 21.695C359.422 21.305 357.937 20.9 355.867 20.48C353.347 19.94 351.262 19.385 349.612 18.815C347.962 18.215 346.522 17.24 345.292 15.89C344.062 14.54 343.447 12.71 343.447 10.4C343.447 7.01 344.752 4.52 347.362 2.93C350.002 1.31 353.332 0.499998 357.352 0.499998Z" fill="white" style="mix-blend-mode:exclusion"/>
</svg>
