<svg width="29" height="46" fill="none" xmlns="http://www.w3.org/2000/svg" xmlns:xlink="http://www.w3.org/1999/xlink">
    <defs>
        <symbol id="icon">
            <path d="M23.8722 1.93878C22.0393 1.06768 20.0967 0.44785 18.0972 0.0961304C17.8242 0.60248 17.5769 1.1228 17.3575 1.65592C15.2335 1.32397 13.0707 1.32397 10.9467 1.65592C10.7262 1.1228 10.48 0.60248 10.2058 0.0961304C8.20424 0.4506 6.25948 1.07193 4.42382 1.94343C0.768635 7.55052 -0.223036 13.0191 0.272799 18.4085C2.40033 20.0415 4.79837 21.2896 7.358 22.0961C7.93083 21.2964 8.43833 20.4479 8.87467 19.5586C8.04429 19.2371 7.24461 18.8417 6.48532 18.3771C6.68599 18.2258 6.88199 18.0709 7.07099 17.9208C9.27599 18.9984 11.6985 19.5594 14.1539 19.5609C16.6027 19.5609 19.0212 19.001 21.2356 17.9196C21.4281 18.0826 21.6241 18.2374 21.8224 18.3771C21.0594 18.8439 20.259 19.2408 19.4284 19.5621C19.8635 20.449 20.371 21.2964 20.945 22.0961C23.507 21.2929 25.907 20.0454 28.0349 18.4108C28.6159 12.16 27.0421 6.74269 23.8722 1.93878ZM9.50234 15.0934C8.12216 15.0934 6.98116 13.7943 6.98116 12.1961C6.98116 10.5979 8.0825 9.2884 9.49767 9.2884C10.914 9.2884 12.0457 10.5979 12.0223 12.1961C11.9978 13.7943 10.9093 15.0945 9.50234 15.0945V15.0934ZM18.8054 15.0934C17.4217 15.0934 16.2854 13.7943 16.2854 12.1961C16.2854 10.5979 17.3867 9.2884 18.8054 9.2884C20.2229 9.2884 21.3464 10.5979 21.3219 12.1961C21.2986 13.7943 20.2124 15.0945 18.8054 15.0945V15.0934Z"/>
        </symbol>
    </defs>
    <use xlink:href="#icon" x="0" y="0" fill="black" />
    <use xlink:href="#icon" x="0" y="23" fill="white" />
</svg>
