<svg width="30" height="60" fill="none"
    xmlns="http://www.w3.org/2000/svg"
    xmlns:xlink="http://www.w3.org/1999/xlink">
    <svg y="30" x="0" >
        <path d="M6 12H24V20H6V12Z" fill="black"/>
        <path d="M24.8722 5.93878C23.0393 5.06768 21.0967 4.44785 19.0972 4.09613C18.8242 4.60248 18.5769 5.1228 18.3575 5.65592C16.2335 5.32397 14.0707 5.32397 11.9467 5.65592C11.7262 5.1228 11.48 4.60248 11.2058 4.09613C9.20424 4.4506 7.25948 5.07193 5.42382 5.94343C1.76863 11.5505 0.776964 17.0191 1.2728 22.4085C3.40033 24.0415 5.79837 25.2896 8.358 26.0961C8.93083 25.2964 9.43833 24.4479 9.87467 23.5586C9.04429 23.2371 8.24461 22.8417 7.48532 22.3771C7.68599 22.2258 7.88199 22.0709 8.07099 21.9208C10.276 22.9984 12.6985 23.5594 15.1539 23.5609C17.6027 23.5609 20.0212 23.001 22.2356 21.9196C22.4281 22.0826 22.6241 22.2374 22.8224 22.3771C22.0594 22.8439 21.259 23.2408 20.4284 23.5621C20.8635 24.449 21.371 25.2964 21.945 26.0961C24.507 25.2929 26.907 24.0454 29.0349 22.4108C29.6159 16.16 28.0421 10.7427 24.8722 5.93878ZM10.5023 19.0934C9.12216 19.0934 7.98116 17.7943 7.98116 16.1961C7.98116 14.5979 9.0825 13.2884 10.4977 13.2884C11.914 13.2884 13.0457 14.5979 13.0223 16.1961C12.9978 17.7943 11.9093 19.0945 10.5023 19.0945V19.0934ZM19.8054 19.0934C18.4217 19.0934 17.2854 17.7943 17.2854 16.1961C17.2854 14.5979 18.3867 13.2884 19.8054 13.2884C21.2229 13.2884 22.3464 14.5979 22.3219 16.1961C22.2986 17.7943 21.2124 19.0945 19.8054 19.0945V19.0934Z" fill="white"/>
    </svg>
    <svg y="0" x="0">
        <path d="M6 12H24V20H6V12Z" fill="black"/>
        <path d="M24.8722 5.93878C23.0393 5.06768 21.0967 4.44785 19.0972 4.09613C18.8242 4.60248 18.5769 5.1228 18.3575 5.65592C16.2335 5.32397 14.0707 5.32397 11.9467 5.65592C11.7262 5.1228 11.48 4.60248 11.2058 4.09613C9.20424 4.4506 7.25948 5.07193 5.42382 5.94343C1.76863 11.5505 0.776964 17.0191 1.2728 22.4085C3.40033 24.0415 5.79837 25.2896 8.358 26.0961C8.93083 25.2964 9.43833 24.4479 9.87467 23.5586C9.04429 23.2371 8.24461 22.8417 7.48532 22.3771C7.68599 22.2258 7.88199 22.0709 8.07099 21.9208C10.276 22.9984 12.6985 23.5594 15.1539 23.5609C17.6027 23.5609 20.0212 23.001 22.2356 21.9196C22.4281 22.0826 22.6241 22.2374 22.8224 22.3771C22.0594 22.8439 21.259 23.2408 20.4284 23.5621C20.8635 24.449 21.371 25.2964 21.945 26.0961C24.507 25.2929 26.907 24.0454 29.0349 22.4108C29.6159 16.16 28.0421 10.7427 24.8722 5.93878ZM10.5023 19.0934C9.12216 19.0934 7.98116 17.7943 7.98116 16.1961C7.98116 14.5979 9.0825 13.2884 10.4977 13.2884C11.914 13.2884 13.0457 14.5979 13.0223 16.1961C12.9978 17.7943 11.9093 19.0945 10.5023 19.0945V19.0934ZM19.8054 19.0934C18.4217 19.0934 17.2854 17.7943 17.2854 16.1961C17.2854 14.5979 18.3867 13.2884 19.8054 13.2884C21.2229 13.2884 22.3464 14.5979 22.3219 16.1961C22.2986 17.7943 21.2124 19.0945 19.8054 19.0945V19.0934Z" fill="#5865F2"/>
    </svg>
</svg>
