<svg width="20" height="40" fill="none"
    xmlns="http://www.w3.org/2000/svg"
    xmlns:xlink="http://www.w3.org/1999/xlink">
    <defs>
        <symbol id="icon">
            <path d="M2.47192 7.89063C2.36652 7.89158 2.26274 7.86463 2.17113 7.8125C2.10394 7.77473 2.04495 7.72394 1.99763 7.6631C1.9503 7.60226 1.91558 7.53259 1.8955 7.45817C1.87542 7.38375 1.87039 7.30607 1.88069 7.22968C1.89099 7.15329 1.91643 7.07972 1.95551 7.01328C2.70863 5.75625 5.00004 2.82227 10 2.82227C12.1668 2.82227 14.0672 3.39141 15.6457 4.51328C16.945 5.43398 17.6731 6.47617 18.02 6.97813C18.064 7.0414 18.0948 7.11283 18.1108 7.18822C18.1268 7.26361 18.1275 7.34143 18.113 7.4171C18.0984 7.49278 18.0688 7.56477 18.026 7.62886C17.9832 7.69294 17.928 7.74781 17.8637 7.79023C17.7322 7.87715 17.5721 7.90944 17.4172 7.88027C17.2623 7.8511 17.1249 7.76277 17.034 7.63398C16.4063 6.73125 14.4922 3.98438 10 3.98438C5.61527 3.98438 3.63285 6.51211 2.98715 7.59609C2.93527 7.68661 2.86016 7.76164 2.76958 7.81342C2.679 7.8652 2.57624 7.89185 2.47192 7.89063Z"/>
            <path d="M12.519 19.375C12.4692 19.3756 12.4194 19.37 12.371 19.3582C8.74401 18.4598 7.38972 14.834 7.33464 14.6832L7.32605 14.65C7.29636 14.5453 6.56862 12.059 7.68581 10.6027C8.19792 9.93868 8.97683 9.59805 10.0053 9.59805C10.9616 9.59805 11.6514 9.89532 12.1257 10.5106C12.5163 11.0129 12.6725 11.6324 12.8237 12.2293C13.1413 13.4723 13.3706 14.125 14.6905 14.1922C15.2702 14.2215 15.651 13.8824 15.8671 13.5938C16.451 12.8066 16.5526 11.5234 16.1124 10.3906C15.5467 8.92852 13.5393 6.17188 9.99987 6.17188C8.48894 6.17188 7.10065 6.65743 5.98737 7.56993C5.06589 8.32579 4.33581 9.39297 3.98425 10.4898C3.33229 12.532 4.18737 15.7422 4.19558 15.7715C4.21554 15.8462 4.22035 15.9242 4.2097 16.0008C4.19906 16.0774 4.17319 16.151 4.13362 16.2175C4.09405 16.2839 4.04157 16.3418 3.97929 16.3876C3.917 16.4334 3.84617 16.4664 3.77097 16.4844C3.61904 16.5248 3.45733 16.5041 3.32049 16.4267C3.18366 16.3493 3.08259 16.2213 3.03894 16.0703C2.99987 15.9238 2.08659 12.5 2.83972 10.1398C3.66003 7.58243 6.19167 5.0043 10.001 5.0043C11.7616 5.0043 13.4249 5.60274 14.8132 6.73282C15.8882 7.61172 16.7663 8.79219 17.2257 9.97227C17.8096 11.4789 17.653 13.1699 16.8276 14.2746C16.2776 15.0113 15.4944 15.3965 14.6268 15.3547C12.3667 15.2414 11.9604 13.6637 11.6643 12.5129C11.3596 11.3324 11.1647 10.7633 10.001 10.7633C9.36198 10.7633 8.91315 10.9391 8.63386 11.3031C8.253 11.8012 8.22331 12.5797 8.2655 13.1445C8.29319 13.5381 8.35993 13.9279 8.46472 14.3082C8.55769 14.5426 9.76823 17.5113 12.6675 18.2297C12.7424 18.2474 12.813 18.2799 12.8753 18.3252C12.9376 18.3705 12.9903 18.4277 13.0302 18.4935C13.0702 18.5594 13.0967 18.6325 13.1082 18.7086C13.1197 18.7848 13.1159 18.8624 13.0971 18.9371C13.0618 19.0632 12.9861 19.1742 12.8817 19.2533C12.7773 19.3324 12.65 19.3751 12.519 19.375Z"/>
            <path d="M7.86378 19.107C7.78249 19.1072 7.70199 19.091 7.62709 19.0594C7.5522 19.0278 7.48443 18.9814 7.42784 18.923C5.97628 17.3996 5.15519 15.6961 4.8462 13.566V13.5547C4.67276 12.1445 4.92667 10.148 6.17081 8.77538C7.08917 7.76249 8.38019 7.24765 10.0013 7.24765C11.9185 7.24765 13.4251 8.13906 14.3646 9.82148C15.0462 11.0437 15.1814 12.2617 15.1849 12.3117C15.192 12.3888 15.1839 12.4665 15.1609 12.5405C15.138 12.6144 15.1007 12.6831 15.0512 12.7426C15.0016 12.8021 14.9409 12.8513 14.8723 12.8873C14.8038 12.9233 14.7288 12.9454 14.6517 12.9523C14.4961 12.9692 14.3401 12.9242 14.2174 12.8271C14.0947 12.73 14.0151 12.5885 13.9958 12.4332C13.8929 11.7024 13.6564 10.9968 13.2982 10.3516C12.57 9.06679 11.4622 8.41367 9.99698 8.41367C8.73136 8.41367 7.74112 8.79453 7.05987 9.54648C6.07784 10.6305 5.888 12.3004 6.02276 13.4051C6.29347 15.2887 7.01729 16.7871 8.29542 18.1262C8.34876 18.1817 8.39041 18.2473 8.41787 18.3192C8.44534 18.3911 8.45806 18.4678 8.45529 18.5448C8.45252 18.6217 8.43431 18.6973 8.40175 18.767C8.36919 18.8368 8.32293 18.8993 8.26573 18.9508C8.15558 19.0506 8.01244 19.1063 7.86378 19.107Z"/>
            <path d="M14.551 17.4289C13.2815 17.4289 12.2022 17.0773 11.3385 16.3785C9.60335 14.9805 9.40882 12.7035 9.40022 12.6074C9.388 12.4497 9.43893 12.2936 9.54182 12.1734C9.64471 12.0532 9.79112 11.9788 9.94886 11.9666C10.1066 11.9544 10.2627 12.0053 10.3829 12.1082C10.5031 12.2111 10.5775 12.3575 10.5897 12.5152C10.594 12.5488 10.7674 14.4113 12.1049 15.484C12.8963 16.116 13.9541 16.3668 15.2576 16.2203C15.4134 16.2014 15.5704 16.245 15.6942 16.3414C15.8179 16.4379 15.8985 16.5795 15.9182 16.7352C15.9267 16.8121 15.9199 16.8899 15.898 16.9641C15.8761 17.0384 15.8397 17.1075 15.7908 17.1675C15.7419 17.2275 15.6816 17.2771 15.6133 17.3136C15.5451 17.35 15.4702 17.3725 15.3932 17.3797C15.1136 17.4123 14.8324 17.4287 14.551 17.4289Z"/>
            <path d="M15.5541 1.90586C15.0588 1.58359 13.3025 0.625 10.0002 0.625C6.53379 0.625 4.77324 1.68398 4.38379 1.95312C4.35807 1.96891 4.33399 1.98723 4.31191 2.00781C4.30959 2.01007 4.30655 2.01145 4.30332 2.01172C4.24113 2.06602 4.19123 2.13295 4.15694 2.20805C4.12266 2.28316 4.10478 2.36471 4.10449 2.44727C4.10556 2.52466 4.12189 2.60107 4.15254 2.67214C4.1832 2.74321 4.22758 2.80753 4.28313 2.86142C4.33869 2.9153 4.40433 2.9577 4.4763 2.98617C4.54827 3.01464 4.62515 3.02864 4.70254 3.02734C4.82658 3.02726 4.94762 2.98923 5.04941 2.91836C5.06621 2.90586 6.58144 1.79258 10.0014 1.79258C13.4213 1.79258 14.9447 2.90195 14.9611 2.91016C15.0651 2.98728 15.1914 3.02842 15.3209 3.02734C15.3983 3.02853 15.4753 3.01441 15.5473 2.9858C15.6192 2.95718 15.6849 2.91463 15.7403 2.86059C15.7958 2.80654 15.8401 2.74207 15.8706 2.67088C15.9011 2.59968 15.9173 2.52316 15.9182 2.4457C15.9182 2.32968 15.8836 2.2163 15.8187 2.12011C15.7538 2.02392 15.6617 1.94931 15.5541 1.90586Z"/>
        </symbol>
    </defs>
    <use xlink:href="#icon" x="0" y="0" fill="black" />
    <use xlink:href="#icon" x="0" y="20" fill="white" />
</svg>
