<svg width="36" height="36" viewBox="0 0 36 36" fill="none"
    xmlns="http://www.w3.org/2000/svg">
    <g clip-path="url(#clip0_421_244)">
        <path d="M18.2768 36H17.723C11.4922 36 6.36914 30.8769 6.36914 24.6462V11.3538C6.36914 5.12308 11.4922 0 17.723 0H18.2768C24.5076 0 29.6307 5.12308 29.6307 11.3538V24.6462C29.6307 30.8769 24.5076 36 18.2768 36ZM17.723 2.07692C12.5999 2.07692 8.3076 6.23077 8.3076 11.3538V24.6462C8.3076 29.7692 12.4614 34.0615 17.723 34.0615H18.2768C23.3999 34.0615 27.6922 29.9077 27.6922 24.6462V11.3538C27.6922 6.23077 23.5384 2.07692 18.2768 2.07692H17.723Z" fill="white"/>
        <path d="M19.3847 14.6769C19.3847 14.6769 19.5232 14.6769 19.3847 14.6769C19.3847 14.5385 19.3847 14.5385 19.3847 14.5385V14.4C19.3847 13.7077 18.6924 13.1538 18.0001 13.1538C17.3078 13.1538 16.6155 13.7077 16.4771 14.4V20.9077C16.4771 21.7385 17.1694 22.4308 18.0001 22.4308C18.8309 22.4308 19.5232 21.7385 19.5232 20.9077C19.5232 20.9077 19.5232 20.9077 19.5232 20.7692V14.6769H19.3847Z" fill="white"/>
    </g>
    <defs>
        <clipPath id="clip0_421_244">
            <rect width="36" height="36" fill="white"/>
        </clipPath>
    </defs>
</svg>
