<svg width="14" height="28" fill="none"
    xmlns="http://www.w3.org/2000/svg"
    xmlns:xlink="http://www.w3.org/1999/xlink">
    <defs>
        <symbol id="icon">
            <path d="M14 9.76346V8.94958C14 8.88729 13.9571 8.85615 13.9253 8.83123L13.8992 8.81047L10.4431 9.93163C10.4179 9.93163 10.4179 9.93163 10.3927 9.95966C10.1758 10.2154 9.9494 10.4609 9.71413 10.6957C9.6656 10.7445 9.63013 10.7808 9.61147 10.8016C9.40893 10.9988 9.13173 11.1099 8.8536 11.1099H7.5936V9.67937H8.6016C8.6268 9.67937 8.652 9.67937 8.6772 9.65134L8.8032 9.5112C8.8536 9.48317 8.93013 9.39908 9.00573 9.31396L9.15693 9.14682L9.30813 8.97761C9.38373 8.89456 9.45933 8.80943 9.53493 8.69732C9.56013 8.65579 9.58533 8.6205 9.61053 8.5852C9.63573 8.5499 9.66093 8.51461 9.68613 8.47308C9.74249 8.40355 9.7931 8.3285 9.83733 8.24885C9.86347 8.22082 9.88213 8.18553 9.9008 8.15023C9.91947 8.11493 9.93813 8.08068 9.96427 8.05161C9.9764 8.02358 9.996 7.98932 10.0147 7.95403C10.0333 7.91873 10.052 7.88344 10.0651 7.85541C10.1407 7.72876 10.2032 7.5855 10.2611 7.45054L10.3171 7.32285C10.3675 7.21074 10.3927 7.12561 10.4179 7.04256C10.4431 6.92941 10.4683 6.84532 10.4935 6.76227L10.4981 6.72386C10.5215 6.5152 10.5429 6.32834 10.5187 6.11657C10.5187 6.06051 10.5187 5.97538 10.4935 5.91932C10.4935 5.86327 10.4935 5.83627 10.4683 5.77918C10.4123 5.56931 10.345 5.36339 10.2667 5.16254C10.2537 5.12317 10.2368 5.08556 10.2163 5.05042C10.1976 5.01513 10.1789 4.97983 10.1659 4.93727C10.1453 4.89877 10.125 4.86001 10.1052 4.821C10.0493 4.70492 9.98529 4.59385 9.91387 4.4888C9.9008 4.46077 9.88213 4.43274 9.86347 4.40472C9.8448 4.37669 9.8252 4.34866 9.81307 4.32063L9.58533 3.98428C9.55806 3.94042 9.52878 3.89814 9.4976 3.85763C9.46607 3.81717 9.43648 3.77489 9.40893 3.73098C9.34365 3.66256 9.28428 3.58749 9.2316 3.50675C9.02602 3.24965 8.80726 3.00598 8.5764 2.77695C8.55296 2.76217 8.53184 2.74323 8.51387 2.7209C8.49564 2.69844 8.47419 2.6795 8.4504 2.66484C8.35008 2.58382 8.25351 2.4972 8.16107 2.40531C8.11525 2.35992 8.06857 2.31562 8.02107 2.27243C7.9716 2.21637 7.92027 2.16031 7.86987 2.13229C7.84527 2.1138 7.82038 2.0958 7.7952 2.0783C7.76797 2.06189 7.74232 2.04241 7.71867 2.02017C7.71867 1.99214 7.69347 1.99214 7.69347 1.99214L7.56747 1.96411V0.728756C7.57079 0.635603 7.55676 0.542693 7.52624 0.455867C7.49572 0.36904 7.44938 0.290176 7.39013 0.224233C7.33205 0.154734 7.26192 0.0990366 7.18396 0.060499C7.106 0.0219615 7.02183 0.00138155 6.93653 0C6.58373 0 6.30653 0.336349 6.30653 0.728756V1.54264L6.23093 1.51461L6.0536 1.45855L5.8772 1.40249L4.64147 1.03811C4.59107 1.03811 4.54067 1.09417 4.56587 1.15023L4.69187 1.62776L4.76747 1.7949C4.78053 1.83746 4.7992 1.87276 4.81787 1.90805C4.83653 1.94231 4.8552 1.97761 4.86827 2.02017C4.91624 2.07504 4.95092 2.14254 4.96907 2.21637C4.99707 2.29215 5.0316 2.37624 5.06987 2.46863L5.1716 2.7209C5.20147 2.78941 5.22293 2.85689 5.24627 2.93163C5.2612 2.97939 5.27707 3.03025 5.2976 3.08631C5.3984 3.39463 5.4992 3.73098 5.6 4.0964L5.6756 4.43274L5.7008 4.4888C5.7512 4.65698 5.7764 4.82515 5.8016 4.99436C5.8268 5.10648 5.852 5.2186 5.852 5.33071C5.852 5.38677 5.85853 5.4501 5.86507 5.51342C5.8716 5.57571 5.8772 5.63903 5.8772 5.69509C5.9024 5.80721 5.9024 5.91932 5.9024 6.03248C5.9024 6.31277 5.8772 6.59306 5.82773 6.84532C5.81979 6.92263 5.80252 6.9984 5.7764 7.07059C5.77247 7.12391 5.75982 7.17598 5.73907 7.22423C5.726 7.26368 5.71107 7.30417 5.70173 7.35088C5.69621 7.41052 5.67866 7.46801 5.6504 7.51906C5.5496 7.82738 5.3984 8.13673 5.2472 8.41702C5.08759 8.74097 4.91314 9.05558 4.72453 9.35963L4.66667 9.45514C4.6536 9.46863 4.648 9.48317 4.64147 9.49666C4.63527 9.51201 4.62675 9.52606 4.61627 9.53819C4.56587 9.59528 4.61627 9.7074 4.69187 9.7074H6.30653V11.1379H4.66667C4.23733 11.1379 3.83413 10.8576 3.63253 10.4092C3.52834 10.1945 3.48445 9.95008 3.50653 9.7074C3.50653 9.62331 3.48133 9.56725 3.40573 9.56725H0.101733C0.0754096 9.56896 0.0505498 9.58129 0.0318189 9.60193C0.0130881 9.62257 0.00177398 9.65011 0 9.67937V9.76346C0 12.0919 1.68933 14 3.78373 14H9.73653C10.8425 14 11.4697 12.883 12.0885 11.7784C12.2603 11.4712 12.432 11.1659 12.6131 10.8857C12.9397 10.3811 13.7228 9.98769 13.9496 9.87558C13.9748 9.84755 14 9.81952 14 9.76346ZM0.882933 7.91146L0.832533 7.99555C0.782133 8.08068 0.832533 8.16476 0.958533 8.16476H3.98533C4.01053 8.16476 4.03573 8.13673 4.06093 8.10871C4.07027 8.08794 4.08333 8.06718 4.09733 8.04434C4.12067 8.00697 4.1468 7.96441 4.16267 7.91146C4.41467 7.43393 4.66667 6.90138 4.74227 6.50897C4.9196 5.55495 4.51547 4.04034 4.01053 2.80498C3.98533 2.72193 3.88453 2.69287 3.83413 2.77695L0.882933 7.91146Z"/>
        </symbol>
    </defs>
    <use xlink:href="#icon" x="0" y="0" fill="black" />
    <use xlink:href="#icon" x="0" y="14" fill="white" />
</svg>
