<svg width="33" height="32" viewBox="0 0 33 32" fill="none"
    xmlns="http://www.w3.org/2000/svg">
    <g clip-path="url(#clip0_608_282)">
        <path d="M16.5 32C25.3366 32 32.5 24.8366 32.5 16C32.5 7.16344 25.3366 0 16.5 0C7.66344 0 0.5 7.16344 0.5 16C0.5 24.8366 7.66344 32 16.5 32Z" fill="url(#paint0_linear_608_282)"/>
        <path d="M27.9542 16.1949H25.1336C25.1336 10.4468 20.4576 5.78723 14.6889 5.78723C8.99172 5.78723 4.35984 10.3327 4.24647 15.9824C4.12919 21.8224 9.62767 26.8937 15.4892 26.8937H16.2265C21.3941 26.8937 28.3203 22.8627 29.4025 17.9513C29.6023 17.0459 28.8847 16.1949 27.9542 16.1949ZM10.4974 16.451C10.4974 17.2197 9.86643 17.8484 9.09501 17.8484C8.32358 17.8484 7.69267 17.2194 7.69267 16.451V14.1904C7.69267 13.4217 8.32358 12.793 9.09501 12.793C9.86643 12.793 10.4974 13.4217 10.4974 14.1904V16.451ZM15.3668 16.451C15.3668 17.2197 14.736 17.8484 13.9646 17.8484C13.1931 17.8484 12.5622 17.2194 12.5622 16.451V14.1904C12.5622 13.4217 13.1934 12.793 13.9646 12.793C14.736 12.793 15.3668 13.4217 15.3668 14.1904V16.451Z" fill="url(#paint1_linear_608_282)"/>
    </g>
    <defs>
        <linearGradient id="paint0_linear_608_282" x1="16.5" y1="0" x2="16.5" y2="32" gradientUnits="userSpaceOnUse">
            <stop stop-color="#534BB1"/>
            <stop offset="1" stop-color="#551BF9"/>
        </linearGradient>
        <linearGradient id="paint1_linear_608_282" x1="16.8404" y1="5.78723" x2="16.8404" y2="26.8937" gradientUnits="userSpaceOnUse">
            <stop stop-color="white"/>
            <stop offset="1" stop-color="white" stop-opacity="0.82"/>
        </linearGradient>
        <clipPath id="clip0_608_282">
            <rect width="32" height="32" fill="white" transform="translate(0.5)"/>
        </clipPath>
    </defs>
</svg>
