<svg width="16" height="32" fill="none"
    xmlns="http://www.w3.org/2000/svg"
    xmlns:xlink="http://www.w3.org/1999/xlink">
        <defs>
        <symbol id="icon">
            <path d="M5.25476 4.20537H9.71642C9.95648 4.92887 10.448 5.54378 11.1019 5.94039C11.757 6.3362 12.5311 6.48724 13.2869 6.36673C14.0427 6.24621 14.7315 5.86193 15.2309 5.28204C15.7272 4.70322 16 3.96597 16 3.20357C16 2.44116 15.7272 1.70391 15.2309 1.1251C14.7315 0.545206 14.0427 0.160923 13.2869 0.0404095C12.5311 -0.0801044 11.757 0.0709396 11.1019 0.46675C10.4482 0.861718 9.95692 1.47694 9.71642 2.20176H5.29591C4.50223 2.18724 3.73244 2.47347 3.1411 3.00298C2.80458 3.33088 2.54097 3.72602 2.36744 4.16263C2.19391 4.59924 2.11437 5.06751 2.134 5.53692C2.10566 6.01162 2.18095 6.4868 2.35466 6.9295C2.52837 7.37219 2.79634 7.77179 3.13996 8.10058C3.67218 8.57727 4.37072 8.82527 5.08443 8.79093H10.4937C10.8355 8.87551 11.1408 9.06638 11.3637 9.33726C11.5877 9.60814 11.7169 9.94303 11.7318 10.2928C11.71 10.6482 11.5717 10.9877 11.3397 11.2586C11.1069 11.5298 10.7924 11.7183 10.4435 11.7958H6.28244C6.04246 11.0707 5.55158 10.4551 4.8981 10.0596C4.24304 9.6638 3.46894 9.51276 2.7131 9.63327C1.95726 9.75379 1.26854 10.1381 0.7691 10.718C0.272806 11.2968 0 12.034 0 12.7964C0 13.5588 0.272806 14.2961 0.7691 14.8749C1.26854 15.4548 1.95726 15.8391 2.7131 15.9596C3.46894 16.0801 4.24304 15.9291 4.8981 15.5332C5.55173 15.1382 6.04299 14.523 6.28358 13.7982H10.8058C11.6217 13.6361 12.3589 13.2032 12.8978 12.5696C13.435 11.9364 13.7425 11.1409 13.7665 10.3134C13.7466 9.49226 13.4497 8.70201 12.9241 8.07086C12.3966 7.43817 11.672 7.0007 10.8664 6.82846H5.05357C4.86266 6.83545 4.676 6.77107 4.53001 6.64788C4.30024 6.33928 4.19279 5.95867 4.22708 5.57692C4.19279 5.18832 4.3071 4.802 4.54945 4.49568C4.74148 4.31647 4.99219 4.21328 5.25476 4.20537ZM12.7583 2.00175C12.9969 2.00201 13.2301 2.07263 13.4288 2.20478C13.6275 2.33693 13.7827 2.52473 13.8751 2.74467C13.9664 2.96422 13.9902 3.206 13.9434 3.43912C13.8965 3.67223 13.7812 3.88609 13.6122 4.05336C13.4429 4.22022 13.2282 4.33358 12.9949 4.37935C12.7616 4.42511 12.52 4.40124 12.3002 4.31071C12.0804 4.22019 11.892 4.06701 11.7586 3.87024C11.6252 3.67348 11.5527 3.44183 11.55 3.20414C11.55 2.88411 11.6769 2.57894 11.9044 2.35378C12.1314 2.12831 12.4383 2.00176 12.7583 2.00175ZM3.24056 14.0177C3.00208 14.0175 2.76894 13.9471 2.5703 13.8151C2.37165 13.6832 2.21632 13.4956 2.12371 13.2759C2.03241 13.0564 2.00866 12.8146 2.0555 12.5815C2.10233 12.3483 2.21762 12.1345 2.38664 11.9672C2.55596 11.8004 2.77064 11.687 3.00393 11.6412C3.23723 11.5955 3.47884 11.6193 3.69866 11.7099C3.91849 11.8004 4.10683 11.9536 4.24022 12.1503C4.37361 12.3471 4.44617 12.5787 4.44885 12.8164C4.44885 13.1353 4.32196 13.4405 4.09448 13.6657C3.86749 13.8911 3.56052 14.0177 3.24056 14.0177Z"/>
        </symbol>
    </defs>
    <use xlink:href="#icon" x="0" y="0" fill="black" />
    <use xlink:href="#icon" x="0" y="16" fill="white" />
</svg>
