<svg width="34" height="68" fill="none" xmlns="http://www.w3.org/2000/svg" xmlns:xlink="http://www.w3.org/1999/xlink">
        <defs>
        <symbol id="icon">
<path d="M15.5841 1.16795C15.5404 0.801273 15.2041 0.542006 14.8384 0.593133C14.483 0.642813 14.2326 0.967647 14.2751 1.32395L14.4523 2.80925C14.5109 3.30077 14.1994 3.75127 13.7261 3.89615C13.1511 4.07216 12.5149 3.74855 12.3859 3.16123L12.1099 1.90516C12.0297 1.54008 11.6629 1.31406 11.3008 1.40647C10.9554 1.49459 10.742 1.84069 10.8185 2.18886L11.2389 4.10298C11.3362 4.54605 11.1363 4.98909 10.7457 5.21967C10.1764 5.55567 9.40786 5.33426 9.17612 4.71518L8.66239 3.34277C8.52919 2.98691 8.1251 2.81518 7.77645 2.96625C7.45193 3.10686 7.29456 3.47714 7.41855 3.80836L8.35579 6.31228C8.46549 6.60535 8.37638 6.93701 8.14621 7.14902C7.81255 7.45637 7.28513 7.4261 7.00662 7.06802L5.59915 5.25849C5.35725 4.94749 4.90221 4.90721 4.60945 5.17089C4.3451 5.40898 4.30952 5.8108 4.52792 6.09163L6.20175 8.24394C6.4485 8.56123 6.44109 9.00735 6.20443 9.33223C5.91875 9.72441 5.37695 9.83901 4.97225 9.57137L3.233 8.42116C2.89811 8.19968 2.44573 8.30761 2.24689 8.65642C2.06574 8.97421 2.16224 9.37805 2.4675 9.5796L4.31549 10.7998C4.71461 11.0633 4.84757 11.5857 4.65347 12.0228C4.45524 12.4692 3.964 12.7158 3.49492 12.5797L1.67961 12.0529C1.29529 11.9414 0.895255 12.1716 0.798501 12.5599C0.706805 12.9279 0.92248 13.3025 1.28676 13.408L2.51615 13.7641C3.27418 13.9837 3.70446 14.7837 3.56058 15.5596C3.42148 16.3097 2.76511 16.8816 2.00365 16.835L1.28794 16.7913C0.89401 16.7673 0.556127 17.0692 0.53595 17.4634C0.516042 17.8523 0.813222 18.1846 1.20191 18.208L1.94776 18.253C2.69775 18.2983 3.27333 18.9261 3.32236 19.6758C3.32508 19.7175 3.32796 19.7591 3.33099 19.8007C3.38027 20.4774 2.93993 21.1075 2.27439 21.2393L1.73239 21.3467C1.35658 21.4211 1.10845 21.7813 1.17287 22.159C1.23977 22.5511 1.61692 22.8109 2.00713 22.7335L2.54573 22.6268C3.20277 22.4966 3.83975 22.913 4.03791 23.5528C4.08228 23.6961 4.12857 23.8386 4.17678 23.9803C4.36293 24.5275 4.13466 25.1405 3.61555 25.3947L3.27919 25.5595C2.94573 25.7228 2.79805 26.1183 2.94283 26.4602C3.09931 26.8298 3.53404 26.9922 3.89446 26.8156L4.22188 26.6552C4.7296 26.4066 5.33971 26.6093 5.63587 27.0909C5.76003 27.2928 5.88889 27.4915 6.0224 27.6868C6.33046 28.1373 6.27784 28.7533 5.86846 29.1142L5.63093 29.3237C5.36063 29.562 5.32022 29.9686 5.53832 30.2555C5.7801 30.5735 6.24109 30.6192 6.5406 30.3548L6.78762 30.1368C7.18661 29.7847 7.78965 29.8125 8.18486 30.169C8.44277 30.4015 8.70998 30.6242 8.98628 30.8363C9.30824 31.0835 9.4059 31.5336 9.19279 31.879L9.15023 31.948C8.96449 32.2491 9.04362 32.6426 9.33131 32.8484C9.6482 33.0752 10.0909 32.9861 10.2954 32.6545L10.3459 32.5728C10.5578 32.2292 10.9997 32.1127 11.3655 32.2835C11.7391 32.458 12.1241 32.6156 12.5201 32.755C12.8991 32.8885 13.2978 32.6413 13.3716 32.2463C13.436 31.9015 13.2272 31.5664 12.896 31.4511C12.5577 31.3333 12.2289 31.2009 11.9098 31.0542C11.6464 30.9332 11.5574 30.6081 11.7096 30.3613C11.8474 30.1379 11.7887 29.846 11.5752 29.6932L11.3141 29.5064C11.0671 29.3297 10.7222 29.3991 10.5628 29.6575C10.4056 29.9123 10.0665 29.9848 9.82809 29.8036C9.53991 29.5845 9.26298 29.3522 8.99729 29.108C8.71959 28.8527 8.73754 28.416 9.02027 28.1663C9.27999 27.9369 9.31849 27.5459 9.10849 27.2702L9.07096 27.221C8.84155 26.9199 8.40485 26.8767 8.12094 27.1271C7.83882 27.3759 7.40401 27.3358 7.1891 27.0271C7.05087 26.8285 6.91782 26.6259 6.79005 26.4195C6.5247 25.9908 6.70639 25.4366 7.15901 25.2146L7.32347 25.1339C7.65672 24.9705 7.80422 24.5751 7.6595 24.2333C7.50297 23.8637 7.06802 23.7014 6.70757 23.8781L6.55772 23.9516C6.1132 24.1696 5.57472 23.9674 5.41392 23.4991C5.38507 23.4151 5.35694 23.3308 5.32956 23.2462C5.13583 22.6478 5.53052 22.0348 6.14745 21.9122L6.61927 21.8184C6.99491 21.7437 7.24281 21.3835 7.1784 21.006C7.11148 20.6137 6.73412 20.3539 6.34377 20.4313L5.89957 20.5194C5.27472 20.6434 4.66979 20.2199 4.62653 19.5844C4.58327 18.9489 5.12529 18.4442 5.76109 18.4827L6.70008 18.5395C7.09294 18.5633 7.42994 18.2625 7.45074 17.8694C7.47131 17.4806 7.17442 17.148 6.78578 17.1245L5.45822 17.044C5.02901 17.018 4.70595 16.6397 4.77257 16.2149C4.83449 15.8201 5.20858 15.5594 5.60506 15.6099C5.71812 15.6243 5.83683 15.639 5.9617 15.6542C6.97133 15.7768 8.27575 15.9157 9.56686 16.0477C11.6363 16.2594 12.9214 18.4108 12.1086 20.3257L11.4212 21.945L11.0452 22.8315C11.03 22.8673 11.0551 22.9074 11.094 22.9094C11.1035 22.9099 11.1128 22.9128 11.1208 22.9179L14.7488 25.1853C15.0891 25.398 15.5382 25.2794 15.7291 24.9264L15.8051 24.7859C15.937 24.5419 15.8566 24.2375 15.6214 24.0905C15.1635 23.8045 15.3832 23.0968 15.9225 23.1202L16.8658 23.1613C17.259 23.1784 17.591 22.8722 17.6057 22.4789L17.6081 22.4121C17.6213 22.0592 17.3471 21.7619 16.9944 21.7465L16.2691 21.7149C15.7599 21.6927 15.6341 20.9956 16.1034 20.7968C16.3379 20.6975 16.4534 20.4317 16.366 20.1925L16.293 19.9926C16.1552 19.6152 15.7294 19.4303 15.3596 19.587L15.2949 19.6144C14.6585 19.8841 14.0172 19.2424 14.2873 18.6062L15.3372 16.1332L15.3599 16.0796C15.5404 15.6535 15.254 15.175 14.7932 15.1327C14.7931 15.1327 14.7931 15.1327 14.7931 15.1327C14.7918 15.1326 12.2638 14.9003 9.69033 14.6372C8.40324 14.5055 7.10417 14.3667 6.10927 14.2458C5.665 14.192 5.38266 13.7448 5.54281 13.3269C5.99279 12.1527 6.6071 11.0274 7.39564 9.98911C8.10792 9.05119 9.50267 9.37796 9.9152 10.4811L10.2839 11.467C10.4174 11.8239 10.8228 11.996 11.1723 11.8442C11.4971 11.7031 11.6544 11.3323 11.5303 11.0006L10.1669 7.35908C10.1508 7.31601 10.1644 7.26627 10.2014 7.23892C10.9247 6.70875 11.9079 7.1486 12.1001 8.02462L12.8984 11.6634C12.9784 12.028 13.3443 12.254 13.7061 12.1623C14.0518 12.0747 14.2656 11.7286 14.1892 11.3802L13.1073 6.44809C13.0083 5.99649 13.2548 5.52963 13.6914 5.37741C14.2364 5.18738 14.7808 5.57708 14.8491 6.15021L15.4712 11.3669C15.5149 11.7331 15.8505 11.9922 16.2158 11.9418C16.5717 11.8927 16.8227 11.5676 16.7802 11.2108L16.1361 5.80712C16.0718 5.26836 16.4604 4.77446 17.0028 4.75916C17.5149 4.74472 17.9165 5.16484 17.9313 5.677L18.0973 11.407C18.1079 11.7722 18.4136 12.0591 18.7787 12.0466L19.2189 12.0315C19.3376 12.0274 19.4308 11.9282 19.4275 11.8094C19.4216 11.6028 19.6813 11.5067 19.8114 11.6674L21.1041 13.265C21.4715 13.719 21.3226 14.3966 20.7987 14.6548L19.7872 15.1533C19.4541 15.3174 19.3073 15.713 19.4525 16.0547L19.4686 16.0925C19.617 16.4418 20.0284 16.5946 20.3689 16.4269C20.9249 16.1531 21.5182 16.7263 21.2636 17.2914L21.172 17.4946C21.0269 17.8168 21.1578 18.1963 21.4707 18.3604C21.8112 18.539 22.2318 18.3939 22.3898 18.0434L23.748 15.0307L23.7516 15.0227C23.8669 14.7689 23.8288 14.4718 23.6533 14.2553L22.3894 12.6942C21.448 11.5313 21.5282 9.84729 22.576 8.77919L22.6352 8.71886C23.5982 7.73718 25.0864 7.52397 26.1011 8.45206C27.547 9.77448 26.6733 12.2642 25.7666 14.0012C25.6666 14.1928 25.5756 14.3946 25.4943 14.6066C25.2525 15.2378 25.345 15.9357 25.6086 16.5581L28.3333 22.991C28.4408 23.2448 28.7068 23.3932 28.9793 23.3514C29.3549 23.2937 29.5839 22.9068 29.4537 22.5498L28.0234 18.6268C27.9021 18.294 28.0629 17.9244 28.3891 17.7863C28.7396 17.6379 29.143 17.8134 29.2734 18.171L30.6426 21.9258C30.8774 22.5698 31.5345 22.9582 32.2119 22.8534C32.9426 22.7404 33.4683 22.0911 33.4267 21.3528L32.9857 13.5253C32.9368 12.656 32.4719 11.8236 31.6381 11.5728C31.4132 11.5051 31.1861 11.4526 30.9584 11.4152C30.5357 11.3457 30.1421 11.1311 29.8998 10.7779C29.8664 10.7291 29.8328 10.6805 29.799 10.6321C29.4957 10.1976 29.5204 9.60789 29.8797 9.21848L30.1368 8.93987C30.379 8.67739 30.3776 8.27249 30.1336 8.01166C29.863 7.72237 29.4037 7.72378 29.1349 8.01472L29.0149 8.14452C28.6774 8.50981 28.0961 8.49881 27.7493 8.14236C27.4738 7.85925 27.4196 7.4281 27.6269 7.09181L28.2187 6.13162C28.4046 5.83001 28.3247 5.43593 28.0361 5.23045C27.719 5.00465 27.2769 5.09435 27.0729 5.42593L26.7737 5.91207C26.4978 6.36027 25.8874 6.45778 25.462 6.14792C25.1527 5.92263 25.0142 5.53034 25.1268 5.16464L25.4944 3.97125C25.5989 3.63187 25.4176 3.27037 25.0831 3.15116C24.7273 3.02437 24.3376 3.21983 24.2265 3.58082L24.085 4.04033C23.9224 4.56846 23.3131 4.81076 22.8114 4.57923C22.465 4.4194 22.2485 4.06561 22.2815 3.68558L22.392 2.41635C22.4232 2.05711 22.1601 1.73938 21.8014 1.70309C21.4353 1.66606 21.1098 1.93574 21.078 2.3023L21.0342 2.80904C20.9865 3.35922 20.4454 3.72573 19.9047 3.61342C19.491 3.52748 19.1779 3.17779 19.1657 2.7554L19.1397 1.85548C19.1292 1.49088 18.8244 1.20425 18.4598 1.21614C18.0971 1.22797 17.8123 1.53091 17.8229 1.89363L17.8552 3.00491C17.8608 3.19537 17.7036 3.35025 17.5131 3.34779C17.4292 3.34681 17.3461 3.34726 17.262 3.34779C16.4837 3.35411 15.7799 2.81209 15.6879 2.0392L15.5841 1.16795ZM19.2574 5.90735C19.2426 5.39592 19.6989 4.99795 20.1938 5.12767C20.5596 5.22353 20.7933 5.57619 20.7606 5.95283L20.5046 8.8967C20.5041 8.90178 20.5079 8.90624 20.513 8.90667C20.5207 8.90733 20.5242 8.91673 20.5188 8.92228L19.9842 9.46706C19.7568 9.69874 19.3627 9.54428 19.3533 9.21984L19.2574 5.90735ZM22.0497 6.35242C22.0735 6.07924 22.359 5.91053 22.6049 6.03189C22.6146 6.03669 22.6244 6.0415 22.6341 6.04632C22.8714 6.16417 22.9181 6.47837 22.7325 6.6675C22.4701 6.9349 22.0171 6.72566 22.0497 6.35242ZM29.9608 12.7164C30.0162 12.7147 30.0716 12.7169 30.1282 12.7212C31.0339 12.7895 31.7026 13.6198 31.639 14.5944C31.5755 15.5687 30.8049 16.2895 29.8991 16.2211C28.9934 16.1527 28.3247 15.3221 28.3883 14.3478C28.4478 13.4345 29.1297 12.7428 29.9608 12.7164ZM22.1438 31.8148C22.0541 31.4988 21.7134 31.3235 21.398 31.4158C21.1038 31.5019 20.926 31.7951 20.987 32.0955L21.0293 32.3036C21.1005 32.6535 21.4443 32.8749 21.7869 32.774C22.1076 32.6795 22.2928 32.3401 22.2016 32.0184L22.1438 31.8148ZM19.7274 32.53C19.6511 32.1524 19.2863 31.9075 18.9049 31.9609C18.8589 31.9673 18.8131 31.9735 18.7674 31.9795C18.3993 32.0277 18.1175 32.3392 18.1245 32.7104C18.1321 33.1159 18.4794 33.4332 18.8821 33.3844C18.9744 33.3733 19.0671 33.3613 19.1601 33.3484C19.5512 33.2943 19.8055 32.9169 19.7274 32.53ZM15.4446 32.0276C15.0706 31.985 14.7177 32.2291 14.6483 32.599C14.5776 32.9754 14.8267 33.3391 15.2065 33.3879C15.502 33.4258 15.8019 33.4545 16.1063 33.4735C16.4972 33.4979 16.8154 33.176 16.8079 32.7844C16.8008 32.4081 16.4948 32.1082 16.1191 32.0859C15.8912 32.0723 15.6663 32.0528 15.4446 32.0276Z" />
        </symbol>
    </defs>
    <use xlink:href="#icon" x="0" y="0" fill="black" />
    <use xlink:href="#icon" x="0" y="34" fill="white" />
</svg>
