<svg width="25" height="44"
    xmlns="http://www.w3.org/2000/svg">
    <svg x="0" y="22">
        <path d="M4.06285 16.7944C4.21579 16.6227 4.42323 16.5263 4.63947 16.5263H24.5913C24.9548 16.5263 25.1367 17.0198 24.8796 17.3083L20.9372 21.7319C20.7842 21.9036 20.5768 22 20.3605 22H0.40868C0.045218 22 -0.136701 21.5065 0.1204 21.218L4.06285 16.7944Z" fill="white"/>
        <path d="M4.06285 0.268047C4.21579 0.0964099 4.42323 0 4.63947 0H24.5913C24.9548 0 25.1367 0.493536 24.8796 0.78204L20.9372 5.20563C20.7842 5.37723 20.5768 5.47366 20.3605 5.47366H0.40868C0.045218 5.47366 -0.136701 4.98017 0.1204 4.69168L4.06285 0.268047Z" fill="white"/>
        <path d="M20.9372 8.47857C20.7842 8.30696 20.5768 8.21054 20.3605 8.21054H0.40868C0.045218 8.21054 -0.136701 8.7041 0.1204 8.99252L4.06285 13.4162C4.21579 13.5878 4.42323 13.6842 4.63947 13.6842H24.5913C24.9548 13.6842 25.1367 13.1907 24.8796 12.9022L20.9372 8.47857Z" fill="white"/>
    </svg>
    <svg x="0" y="0">
        <path d="M4.06285 16.7943C4.21579 16.6227 4.42323 16.5263 4.63947 16.5263H24.5913C24.9548 16.5263 25.1367 17.0198 24.8796 17.3083L20.9372 21.7319C20.7842 21.9036 20.5768 22 20.3605 22H0.40868C0.045218 22 -0.136701 21.5064 0.1204 21.2179L4.06285 16.7943Z" fill="url(#paint0_linear_608_661)"/>
        <path d="M4.06285 0.268047C4.21579 0.0964099 4.42323 0 4.63947 0H24.5913C24.9548 0 25.1367 0.493536 24.8796 0.78204L20.9372 5.20563C20.7842 5.37723 20.5768 5.47366 20.3605 5.47366H0.40868C0.045218 5.47366 -0.136701 4.98017 0.1204 4.69168L4.06285 0.268047Z" fill="url(#paint1_linear_608_661)"/>
        <path d="M20.9372 8.47854C20.7842 8.30693 20.5768 8.21051 20.3605 8.21051H0.40868C0.045218 8.21051 -0.136701 8.70407 0.1204 8.99249L4.06285 13.4162C4.21579 13.5878 4.42323 13.6842 4.63947 13.6842H24.5913C24.9548 13.6842 25.1367 13.1906 24.8796 12.9021L20.9372 8.47854Z" fill="url(#paint2_linear_608_661)"/>
        <defs>
            <linearGradient id="paint0_linear_608_661" x1="16.9015" y1="-6.03473" x2="0.411073" y2="22.0931" gradientUnits="userSpaceOnUse">
                <stop stop-color="#00FFA3"/>
                <stop offset="1" stop-color="#DC1FFF"/>
            </linearGradient>
            <linearGradient id="paint1_linear_608_661" x1="16.9015" y1="-6.03472" x2="0.411072" y2="22.0931" gradientUnits="userSpaceOnUse">
                <stop stop-color="#00FFA3"/>
                <stop offset="1" stop-color="#DC1FFF"/>
            </linearGradient>
            <linearGradient id="paint2_linear_608_661" x1="16.9015" y1="-6.03474" x2="0.411067" y2="22.0931" gradientUnits="userSpaceOnUse">
                <stop stop-color="#00FFA3"/>
                <stop offset="1" stop-color="#DC1FFF"/>
            </linearGradient>
        </defs>
    </svg>
</svg>
