<svg width="33" height="32" viewBox="0 0 33 32" fill="none"
    xmlns="http://www.w3.org/2000/svg">
    <path d="M16.7454 30.7914C17.0843 30.7914 17.359 31.062 17.359 31.3957C17.359 31.7295 17.0843 32 16.7454 32C16.4066 32 16.1318 31.7295 16.1318 31.3957C16.1318 31.062 16.4066 30.7914 16.7454 30.7914ZM16.0788 1.92469C16.3787 1.94934 16.6209 2.17559 16.6614 2.46892L17.3912 7.74908C17.6363 9.49352 19.7492 10.2494 21.0534 9.06395L28.3653 2.43683C28.5417 2.27697 28.8164 2.28805 28.9789 2.46158C29.1279 2.62078 29.1325 2.86452 28.9893 3.02892L22.6133 10.3529C21.4395 11.6988 22.3055 13.8004 24.0949 13.9505L29.7207 14.4906C30.0009 14.5174 30.2059 14.7627 30.1785 15.0384C30.156 15.2657 29.9801 15.4494 29.7508 15.485L23.8392 16.4042C22.1229 16.6371 21.3456 18.6611 22.462 19.976L24.5402 22.4157C24.7076 22.6122 24.6814 22.9051 24.4816 23.0698C24.3124 23.2094 24.0673 23.2148 23.8918 23.0828L21.3299 21.1562C19.9474 20.1209 17.9547 21.0008 17.8085 22.7143L17.244 29.3967C17.2206 29.6727 16.9743 29.8778 16.6938 29.8549C16.4556 29.8354 16.2632 29.6559 16.231 29.4229L15.3357 22.968C15.0958 21.2235 12.9829 20.4677 11.6735 21.6531L3.89507 28.706C3.73406 28.8519 3.48324 28.8418 3.33485 28.6835C3.19871 28.5381 3.19458 28.3156 3.32522 28.1655L10.1137 20.3642C11.2875 19.0183 10.4267 16.9166 8.63729 16.7666L3.01017 16.2264C2.72998 16.1995 2.525 15.9542 2.55234 15.6786C2.57489 15.4512 2.75073 15.2676 2.98005 15.2319L8.88771 14.3129C10.6041 14.0799 11.3866 12.056 10.2702 10.7411L8.85551 9.08034C8.64788 8.83663 8.68041 8.47345 8.92818 8.26921C9.13813 8.09607 9.44212 8.08945 9.65968 8.2532L11.397 9.56088C12.7795 10.5962 14.7723 9.71622 14.9184 8.00281L15.3857 2.50142C15.4152 2.15385 15.7255 1.89564 16.0788 1.92469ZM1.11357 15.061C1.45243 15.061 1.72714 15.3316 1.72714 15.6653C1.72714 15.9991 1.45243 16.2696 1.11357 16.2696C0.774704 16.2696 0.5 15.9991 0.5 15.6653C0.5 15.3316 0.774704 15.061 1.11357 15.061ZM31.8864 14.4474C32.2253 14.4474 32.5 14.718 32.5 15.0517C32.5 15.3855 32.2253 15.656 31.8864 15.656C31.5476 15.656 31.2728 15.3855 31.2728 15.0517C31.2728 14.718 31.5476 14.4474 31.8864 14.4474ZM15.9903 0C16.3291 0 16.6038 0.270554 16.6038 0.6043C16.6038 0.938048 16.3291 1.2086 15.9903 1.2086C15.6514 1.2086 15.3767 0.938048 15.3767 0.6043C15.3767 0.270554 15.6514 0 15.9903 0Z" fill="url(#paint0_linear_608_283)"/>
    <path d="M16.3579 21.0668C19.5589 21.0668 22.1538 18.5111 22.1538 15.3585C22.1538 12.2059 19.5589 9.65021 16.3579 9.65021C13.1569 9.65021 10.562 12.2059 10.562 15.3585C10.562 18.5111 13.1569 21.0668 16.3579 21.0668Z" fill="url(#paint1_radial_608_283)"/>
    <defs>
        <linearGradient id="paint0_linear_608_283" x1="4.68117" y1="5.09009" x2="22.9618" y2="21.7092" gradientUnits="userSpaceOnUse">
            <stop stop-color="#FFC10B"/>
            <stop offset="1" stop-color="#FB3F2E"/>
        </linearGradient>
        <radialGradient id="paint1_radial_608_283" cx="0" cy="0" r="1" gradientUnits="userSpaceOnUse" gradientTransform="translate(15.0343 13.2511) rotate(67.434) scale(8.39613 8.50307)">
            <stop stop-color="#FFC10B"/>
            <stop offset="1" stop-color="#FB3F2E"/>
        </radialGradient>
    </defs>
</svg>
