<svg width="28" height="44" fill="none"
    xmlns="http://www.w3.org/2000/svg"
    xmlns:xlink="http://www.w3.org/1999/xlink">
    <defs>
        <symbol id="icon">
            <path d="M9.06718 21.9615C19.0814 21.9615 24.561 13.5246 24.561 6.22076C24.561 5.98307 24.561 5.74538 24.5495 5.50884C25.6192 4.72086 26.5401 3.74878 27.2691 2.63807C26.2745 3.08462 25.2185 3.37944 24.1364 3.51268C25.2802 2.81439 26.1326 1.72585 26.5364 0.448068C25.4691 1.09195 24.2977 1.54488 23.0749 1.78653C22.5697 1.23583 21.9556 0.796085 21.2715 0.495169C20.5875 0.194254 19.8484 0.0387287 19.101 0.0384521C16.0964 0.0384521 13.6537 2.51922 13.6537 5.57345C13.6537 6.00499 13.7068 6.42499 13.7922 6.83576C9.26795 6.60845 5.25372 4.39768 2.56642 1.05268C2.08394 1.90072 1.83137 2.86008 1.83372 3.83576C1.83372 5.75691 2.80065 7.45076 4.25565 8.44307C3.39085 8.41185 2.54596 8.17491 1.79103 7.75191V7.82807C1.79103 10.5038 3.6718 12.7481 6.15603 13.2546C5.69911 13.3838 5.22142 13.4485 4.72295 13.4485C4.38061 13.4493 4.039 13.4169 3.70295 13.3515C4.39295 15.5531 6.41103 17.15 8.79026 17.1938C6.8706 18.7308 4.48441 19.5676 2.02526 19.5661C1.58911 19.5661 1.15411 19.5454 0.729492 19.4911C3.21162 21.103 6.10763 21.961 9.06718 21.9615Z"/>
        </symbol>
    </defs>
    <use xlink:href="#icon" x="0" y="0" fill="black" />
    <use xlink:href="#icon" x="0" y="22" fill="white" />
</svg>
