<svg width="30" height="60" fill="none"
    xmlns="http://www.w3.org/2000/svg"
    xmlns:xlink="http://www.w3.org/1999/xlink">
    <svg y="30" x="0">
        <path d="M10.0672 25.9615C20.0814 25.9615 25.561 17.5246 25.561 10.2208C25.561 9.98307 25.561 9.74538 25.5495 9.50884C26.6192 8.72086 27.5401 7.74878 28.2691 6.63807C27.2745 7.08462 26.2185 7.37944 25.1364 7.51268C26.2802 6.81439 27.1326 5.72585 27.5364 4.44807C26.4691 5.09195 25.2977 5.54488 24.0749 5.78653C23.5697 5.23583 22.9556 4.79609 22.2715 4.49517C21.5875 4.19425 20.8484 4.03873 20.101 4.03845C17.0964 4.03845 14.6537 6.51922 14.6537 9.57345C14.6537 10.005 14.7068 10.425 14.7922 10.8358C10.268 10.6085 6.25372 8.39768 3.56642 5.05268C3.08394 5.90072 2.83137 6.86008 2.83372 7.83576C2.83372 9.75691 3.80065 11.4508 5.25565 12.4431C4.39085 12.4118 3.54596 12.1749 2.79103 11.7519V11.8281C2.79103 14.5038 4.6718 16.7481 7.15603 17.2546C6.69911 17.3838 6.22142 17.4485 5.72295 17.4485C5.38061 17.4493 5.039 17.4169 4.70295 17.3515C5.39295 19.5531 7.41103 21.15 9.79026 21.1938C7.8706 22.7308 5.48441 23.5676 3.02526 23.5661C2.58911 23.5661 2.15411 23.5454 1.72949 23.4911C4.21162 25.103 7.10763 25.961 10.0672 25.9615Z" fill="white"/>
    </svg>
    <svg y="0" x="0">
        <path d="M10.0672 25.9615C20.0814 25.9615 25.561 17.5246 25.561 10.2208C25.561 9.98307 25.561 9.74538 25.5495 9.50884C26.6192 8.72086 27.5401 7.74878 28.2691 6.63807C27.2745 7.08462 26.2185 7.37944 25.1364 7.51268C26.2802 6.81439 27.1326 5.72585 27.5364 4.44807C26.4691 5.09195 25.2977 5.54488 24.0749 5.78653C23.5697 5.23583 22.9556 4.79609 22.2715 4.49517C21.5875 4.19425 20.8484 4.03873 20.101 4.03845C17.0964 4.03845 14.6537 6.51922 14.6537 9.57345C14.6537 10.005 14.7068 10.425 14.7922 10.8358C10.268 10.6085 6.25372 8.39768 3.56642 5.05268C3.08394 5.90072 2.83137 6.86008 2.83372 7.83576C2.83372 9.75691 3.80065 11.4508 5.25565 12.4431C4.39085 12.4118 3.54596 12.1749 2.79103 11.7519V11.8281C2.79103 14.5038 4.6718 16.7481 7.15603 17.2546C6.69911 17.3838 6.22142 17.4485 5.72295 17.4485C5.38061 17.4493 5.039 17.4169 4.70295 17.3515C5.39295 19.5531 7.41103 21.15 9.79026 21.1938C7.8706 22.7308 5.48441 23.5676 3.02526 23.5661C2.58911 23.5661 2.15411 23.5454 1.72949 23.4911C4.21162 25.103 7.10763 25.961 10.0672 25.9615Z" fill="#55ACEE"/>
    </svg>
</svg>
